<svg id="Layer_1" data-name="Layer 1" xmlns="http://www.w3.org/2000/svg" viewBox="0 0 737 132"><defs><style>.cls-1{font-size:100px;font-family:EurostileBold, Eurostile;font-weight:700;}.cls-1,.cls-2{fill:#fff;}</style></defs><title>logoBrancoHeader</title><text class="cls-1" transform="translate(11.97 102.17)">PHOTO SPOT</text><path class="cls-2" d="M716,76.27,686.93,104H675.18L716,65.07ZM698.52,104H704a12,12,0,0,0,12-12V87.33ZM716,47a12,12,0,0,0-12-12H633a12,12,0,0,0-12,12V92a12,12,0,0,0,12,12h4V59a6,6,0,0,1,6-6h14a6,6,0,0,1,6,6v45h.59L716,54Z"/></svg>